<?xml version="1.0" encoding="iso-8859-1"?>
<!-- Uploaded to: SVG Repo, www.svgrepo.com, Generator: SVG Repo Mixer Tools -->
<svg fill="#000000" height="800px" width="800px" version="1.1" id="Layer_1" xmlns="http://www.w3.org/2000/svg" xmlns:xlink="http://www.w3.org/1999/xlink" 
	 viewBox="0 0 512 512" xml:space="preserve">
<g>
	<g>
		<path d="M370.485,72.083c-23.088,0-41.872,18.784-41.872,41.872s18.784,41.872,41.872,41.872s41.872-18.784,41.872-41.872
			S393.572,72.083,370.485,72.083z M370.485,139.925c-14.321,0-25.971-11.65-25.971-25.971s11.65-25.971,25.971-25.971
			s25.971,11.65,25.971,25.971S384.806,139.925,370.485,139.925z"/>
	</g>
</g>
<g>
	<g>
		<path d="M448.928,169.607c-17.244,0-31.271,14.028-31.271,31.271c0,17.244,14.028,31.271,31.271,31.271
			s31.271-14.028,31.271-31.271C480.199,183.634,466.171,169.607,448.928,169.607z M448.928,216.248
			c-8.475,0-15.371-6.896-15.371-15.371s6.896-15.371,15.371-15.371s15.371,6.896,15.371,15.371S457.403,216.248,448.928,216.248z"
			/>
	</g>
</g>
<g>
	<g>
		<path d="M453.168,21.201c-17.244,0-31.271,14.028-31.271,31.271s14.028,31.271,31.271,31.271
			c17.244,0,31.271-14.028,31.271-31.271S470.411,21.201,453.168,21.201z M453.168,67.843c-8.475,0-15.371-6.896-15.371-15.371
			s6.896-15.371,15.371-15.371s15.371,6.896,15.371,15.371S461.643,67.843,453.168,67.843z"/>
	</g>
</g>
<g>
	<g>
		<path d="M393.069,231.903L333.1,171.934c-3.106-3.104-8.139-3.104-11.244,0c-3.105,3.106-3.105,8.139,0,11.244l3.378,3.378
			l-67.338,67.33c-11.136-8.457-23.31-15.196-36.347-20.075V66.783h9.01c4.392,0,7.95-3.559,7.95-7.95c0-4.392-3.559-7.95-7.95-7.95
			h-21.732V7.95c0-4.392-3.559-7.95-7.95-7.95h-59.362c-4.392,0-7.95,3.559-7.95,7.95v42.932h-21.731c-4.392,0-7.95,3.559-7.95,7.95
			c0,4.392,3.559,7.95,7.95,7.95h9.01v167.026c-42.3,15.818-74.792,50.638-87.515,94.155c-3.828,13.053-5.769,26.645-5.769,40.4
			C27.561,447.565,91.996,512,171.197,512s143.636-64.435,143.636-143.636c0-13.716-1.941-27.307-5.768-40.393
			c-0.031-0.105-0.072-0.205-0.107-0.307c-1.364-4.613-2.97-9.173-4.789-13.618l74.277-74.277l3.378,3.378
			c1.553,1.552,3.588,2.328,5.622,2.328s4.07-0.776,5.622-2.328C396.173,240.041,396.173,235.008,393.069,231.903z M149.466,15.901
			h43.462v34.981h-43.462V15.901z M171.197,496.099c-70.433,0-127.735-57.302-127.735-127.735c0-10.243,1.224-20.374,3.614-30.211
			h248.238c2.391,9.858,3.618,19.992,3.618,30.211C298.932,438.798,241.63,496.099,171.197,496.099z M296.876,298.849
			c-1.971-3.555-4.088-7.038-6.351-10.414c-2.414-3.598-7.432-4.589-11.031-2.176c-3.599,2.413-4.589,7.432-2.176,11.031
			c3.887,5.797,7.311,11.933,10.18,18.237c0,0,0,0.001,0.001,0.001c0.001,0.002,0.001,0.004,0.002,0.005
			c1.004,2.2,1.93,4.448,2.81,6.719H52.049c13.715-35.505,42.676-63.239,79.229-75.258c3.262-1.074,5.467-4.119,5.467-7.553V66.783
			h68.903v172.66c0,3.433,2.204,6.478,5.465,7.552c15.476,5.094,29.696,13.035,42.263,23.606c0.002,0.002,0.004,0.004,0.006,0.005
			c3.688,3.103,7.226,6.439,10.522,9.917c3.203,3.382,8.792,3.231,11.818-0.305c2.61-3.05,2.484-7.718-0.276-10.63
			c-1.736-1.833-3.538-3.627-5.384-5.38l66.416-66.406l30.723,30.723L296.876,298.849z"/>
	</g>
</g>
<g>
	<g>
		<path d="M116.075,351.934c-16.073,0-29.151,13.078-29.151,29.151s13.078,29.151,29.151,29.151s29.151-13.078,29.151-29.151
			S132.148,351.934,116.075,351.934z M116.075,394.335c-7.307,0-13.25-5.944-13.25-13.25s5.944-13.251,13.25-13.251
			c7.307,0,13.251,5.944,13.251,13.251S123.381,394.335,116.075,394.335z"/>
	</g>
</g>
<g>
	<g>
		<path d="M162.716,402.816c-16.073,0-29.151,13.078-29.151,29.151c0,16.073,13.078,29.151,29.151,29.151
			c16.073,0,29.151-13.078,29.151-29.151C191.868,415.893,178.79,402.816,162.716,402.816z M162.716,445.217
			c-7.307,0-13.251-5.944-13.251-13.251c0-7.307,5.944-13.25,13.251-13.25s13.25,5.944,13.25,13.25
			C175.967,439.274,170.023,445.217,162.716,445.217z"/>
	</g>
</g>
<g>
	<g>
		<path d="M222.079,351.934c-16.073,0-29.151,13.078-29.151,29.151s13.078,29.151,29.151,29.151s29.151-13.078,29.151-29.151
			S238.152,351.934,222.079,351.934z M222.079,394.335c-7.307,0-13.25-5.944-13.25-13.25s5.944-13.251,13.25-13.251
			s13.251,5.944,13.251,13.251S229.386,394.335,222.079,394.335z"/>
	</g>
</g>
<g>
	<g>
		<path d="M255.978,295.331c-0.776-0.901-1.565-1.789-2.368-2.663c-2.972-3.234-8.001-3.447-11.233-0.477
			c-3.234,2.97-3.447,8-0.477,11.233c0.691,0.754,1.371,1.518,2.038,2.291c1.572,1.823,3.791,2.758,6.023,2.758
			c1.839,0,3.688-0.635,5.19-1.93C258.476,303.675,258.846,298.655,255.978,295.331z"/>
	</g>
</g>
<g>
	<g>
		<path d="M236.804,277.722c-9.346-6.753-19.661-12.01-30.656-15.622c-4.174-1.375-8.665,0.9-10.034,5.071
			c-1.371,4.171,0.9,8.664,5.071,10.034c9.438,3.102,18.289,7.611,26.306,13.405c1.408,1.018,3.036,1.507,4.65,1.507
			c2.465,0,4.895-1.144,6.45-3.295C241.163,285.263,240.362,280.294,236.804,277.722z"/>
	</g>
</g>
</svg>